{"title":"Red.Eye.720p.2014.01.01-HDContentDump","uid":9427074,"size":403087253,"categoryP":"video","categoryS":"hd___tv_shows","magnet":"?xt=urn:btih:27292a66a1362f49c47b73fbd6956b8c514e0de3&amp;dn=Red.Eye.720p.2014.01.01-HDContentDump&amp;tr=udp%3A%2F%2Ftracker.openbittorrent.com%3A80&amp;tr=udp%3A%2F%2Fopen.demonii.com%3A1337&amp;tr=udp%3A%2F%2Ftracker.coppersurfer.tk%3A6969&amp;tr=udp%3A%2F%2Fexodus.desync.com%3A6969","seeders":1,"leechers":0,"uploader":"Reive","files":1,"time":1388725740,"description":"[b]Video : [/b]HDTVRip - 1280x720 (WS) x264 @ 2279kbps\n[b]Audio : [/b]AAC @ 192kbps\n[b]Runtime : [/b]21 min\n\n[b]Notes[/b]\nThis show is great. It's not the typical shit Fox News puts out. It's actually funny. Since it's on at 3AM they get away with a lot. Tends to have a more &quot;Libertarian&quot; perspective. They regularly have comedians on. This episode actually ends with one of the panelists falling backwards in his chair and busting his ass.\n &lt;a href=&quot;\nhttp://i.imgur.com/Jzsh1zB.gif&quot; rel=&quot;nofollow&quot; target=&quot;_NEW&quot;&gt;\nhttp://i.imgur.com/Jzsh1zB.gif&lt;/a&gt;\n\n[b]Show Information[/b]\nRed Eye w/Greg Gutfeld is an American late-night/early-morning satirical talk show on the Fox News Channel, airing at 3:00 am ET Tuesday through Saturday and 11:00 pm Saturday and 2:00 am Sunday. The show features panelists and guests discussing the latest news in politics, pop culture, entertainment, business, sports, and religion. The show is hosted by Greg Gutfeld, a self-described libertarian, who is a former Maxim UK editor. \n\n[b]Episode Information[/b]\nIt's the Red Eye New Years Mildly entertaining spectacular! With Gavin McInnes, Sherrod Small, Dana Perino and a frightened correspondent Joe Machi!\n\n[b]Screenshots[/b]\n[img]http://i.imgur.com/HNgFRzo.png[/img]\n[img]http://i.imgur.com/s2b37LE.png[/img]\n\n[b]General [/b]\nComplete name : H:TelevisionRed Eye w Greg GutfeldRed Eye w Greg Gutfeld 2013Red.Eye.720p.2014.01.01-HDContentDump.mp4 \nFormat : MPEG-4 \nFormat profile : Base Media / Version 2 \nCodec ID : mp42 \nFile size : 384 MiB \nDuration : 21mn 43s \nOverall bit rate mode : Variable \nOverall bit rate : 2 474 Kbps \nEncoded date : UTC 2013-12-31 23:06:49 \nTagged date : UTC 2013-12-31 23:06:49 \ngsst : 0 \ngstd : 1303498 \ngssd : B4A7D09C5HH1388720560699919 \ngshh : r20---sn-vgqsen7k.googlevideo.com \n\n[b]Video [/b]\nID : 1 \nFormat : AVC \nFormat/Info : Advanced Video Codec \nFormat profile : &lt;a class=&quot;__cf_email__&quot; href=&quot;/cdn-cgi/l/email-protection&quot; data-cfemail=&quot;327a5b555a727e011c03&quot;&gt;[email&amp;#160;protected]&lt;/a&gt;&lt;script cf-hash='f9e31' type=&quot;text/javascript&quot;&gt;\n/* &lt;![CDATA[ */!function(){try{var t=&quot;currentScript&quot;in document?document.currentScript:function(){for(var t=document.getElementsByTagName(&quot;script&quot;),e=t.length;e--;)if(t[e].getAttribute(&quot;cf-hash&quot;))return t[e]}();if(t&amp;&amp;t.previousSibling){var e,r,n,i,c=t.previousSibling,a=c.getAttribute(&quot;data-cfemail&quot;);if(a){for(e=&quot;&quot;,r=parseInt(a.substr(0,2),16),n=2;a.length-n;n+=2)i=parseInt(a.substr(n,2),16)^r,e+=String.fromCharCode(i);e=document.createTextNode(e),c.parentNode.replaceChild(e,c)}}}catch(u){}}();/* ]]&gt; */&lt;/script&gt; \nFormat settings, CABAC : Yes \nFormat settings, ReFrames : 1 frame \nFormat settings, GOP : M=1, N=60 \nCodec ID : avc1 \nCodec ID/Info : Advanced Video Coding \nDuration : 21mn 43s \nBit rate : 2 279 Kbps \nMaximum bit rate : 6 151 Kbps \nWidth : 1 280 pixels \nHeight : 720 pixels \nDisplay aspect ratio : 16:9 \nFrame rate mode : Variable \nFrame rate : 29.970 fps \nMinimum frame rate : 29.098 fps \nMaximum frame rate : 29.970 fps \nColor space : YUV \nChroma subsampling : 4:2:0 \nBit depth : 8 bits \nScan type : Progressive \nBits/(Pixel*Frame) : 0.083 \nStream size : 354 MiB (92%) \nTagged date : UTC 2013-12-31 23:07:42 \n\n[b]Audio [/b]\nID : 2 \nFormat : AAC \nFormat/Info : Advanced Audio Codec \nFormat profile : LC \nCodec ID : 40 \nDuration : 21mn 43s \nBit rate mode : Variable \nBit rate : 192 Kbps \nMaximum bit rate : 201 Kbps \nChannel(s) : 2 channels \nChannel positions : Front: L R \nSampling rate : 44.1 KHz \nCompression mode : Lossy \nStream size : 29.8 MiB (8%) \nTitle : IsoMedia File Produced by Google, 5-11-2011 \nEncoded date : UTC 2013-12-31 23:07:28 \nTagged date : UTC 2013-12-31 23:07:42","torrent":{"xt":"urn:btih:27292a66a1362f49c47b73fbd6956b8c514e0de3","amp;dn":"Red.Eye.720p.2014.01.01-HDContentDump","amp;tr":["udp%3A%2F%2Ftracker.openbittorrent.com%3A80","udp%3A%2F%2Fopen.demonii.com%3A1337","udp%3A%2F%2Ftracker.coppersurfer.tk%3A6969","udp%3A%2F%2Fexodus.desync.com%3A6969"],"infoHash":"27292a66a1362f49c47b73fbd6956b8c514e0de3","infoHashBuffer":{"type":"Buffer","data":[39,41,42,102,161,54,47,73,196,123,115,251,214,149,107,140,81,78,13,227]},"announce":[],"urlList":[]}}